<?xml version="1.0" encoding="utf-8"?>
<!-- Generator: Adobe Illustrator 23.0.0, SVG Export Plug-In . SVG Version: 6.00 Build 0)  -->
<svg version="1.1" id="레이어_1" xmlns="http://www.w3.org/2000/svg" xmlns:xlink="http://www.w3.org/1999/xlink" x="0px"
	 y="0px" viewBox="0 0 317 69" style="enable-background:new 0 0 317 69;" xml:space="preserve">
<style type="text/css">
	.st0{fill:#FFFFFF;}
	.st1{fill:#6415B7;}
</style>
<g>
	<path class="st0" d="M264.47,55.8L23.75,55.98C13.14,55.98,4.51,44.91,4.5,31.3C4.49,17.68,13.11,6.6,23.71,6.59l263.03-0.2
		c10.61,0,19.24,11.07,19.25,24.68c0,6.64-2.02,12.88-5.7,17.56c-3.63,4.61-8.42,7.15-13.52,7.16l-7.37,0.01l-7.46,9.5L264.47,55.8z
		"/>
	<path class="st1" d="M286.76,7.39c10.05,0,18.23,10.62,18.24,23.68c0.01,13.07-8.16,23.7-18.22,23.71l-6.88,0.01l-0.97,0l-0.6,0.76
		l-6.38,8.12l-6.39-8.11l-0.6-0.76l-0.97,0L23.74,54.98C13.69,54.98,5.51,44.36,5.5,31.3C5.49,18.23,13.66,7.6,23.71,7.59
		l263.03-0.2H286.76 M286.76,5.39c0,0-0.01,0-0.01,0L23.71,5.59C12.54,5.6,3.49,17.11,3.5,31.3c0.01,14.19,9.07,25.68,20.24,25.68
		c0,0,0.01,0,0.01,0l240.24-0.18l7.97,10.1l7.95-10.11l6.88-0.01c11.17-0.01,20.22-11.52,20.21-25.71
		C306.99,16.88,297.92,5.39,286.76,5.39L286.76,5.39z"/>
</g>
</svg>
